<?xml version="1.0" encoding="UTF-8" standalone="no"?>
<!-- Created with Inkscape (http://www.inkscape.org/) -->

<svg
   version="1.1"
   id="svg2"
   width="120"
   height="120"
   viewBox="0 0 2666.6667 2666.6667"
   sodipodi:docname="vecteezy_creative-luxury-curtain-or-curtain-logo-template-design-for_18848610.eps"
   xmlns:inkscape="http://www.inkscape.org/namespaces/inkscape"
   xmlns:sodipodi="http://sodipodi.sourceforge.net/DTD/sodipodi-0.dtd"
   xmlns="http://www.w3.org/2000/svg"
   xmlns:svg="http://www.w3.org/2000/svg">
  <defs
     id="defs6" />
  <sodipodi:namedview
     id="namedview4"
     pagecolor="#ffffff"
     bordercolor="#000000"
     borderopacity="0.25"
     inkscape:showpageshadow="2"
     inkscape:pageopacity="0.0"
     inkscape:pagecheckerboard="0"
     inkscape:deskcolor="#d1d1d1" />
  <g
     id="g8"
     inkscape:groupmode="layer"
     inkscape:label="ink_ext_XXXXXX"
     transform="matrix(1.3333333,0,0,-1.3333333,0,2666.6667)">
    <g
       id="g10"
       transform="scale(0.1)">
      <path
         d="M 20000,0 H 0 V 20000 H 20000 V 0"
         style="fill-opacity:1;fill-rule:nonzero;stroke:none"
         id="path12" />
     
      <path
         d="m 14474.6,3975.6 h 494.3 v -70.4 h -417.1 v -233.4 h 373.2 v -70.4 h -373.2 v -239.3 h 422 v -70.4 h -499.2 v 683.9"
         style="fill:#7b7979;fill-opacity:1;fill-rule:nonzero;stroke:none"
         id="path32" />
      <path
         d="m 2777,5672.5 v 4.5 c 0,448.2 335.58,815.3 813.05,815.3 290.53,0 466.2,-101.3 617.11,-245.5 l -177.93,-204.9 c -126.13,117.1 -261.26,195.9 -441.44,195.9 -301.79,0 -520.26,-247.7 -520.26,-556.3 v -4.5 c 0,-308.5 218.47,-560.8 520.26,-560.8 193.69,0 317.57,78.9 452.7,205 L 4218.42,5141 c -164.41,-171.2 -344.59,-279.3 -639.63,-279.3 -459.46,0 -801.79,358.1 -801.79,810.8"
         style="fill:#ffffff;fill-opacity:1;fill-rule:nonzero;stroke:none"
         id="path34" />
      <path
         d="m 5159.9,5557.7 v 907.6 h 277.02 v -896.4 c 0,-292.8 150.9,-450.4 398.65,-450.4 245.49,0 396.39,148.6 396.39,439.2 v 907.6 h 277.02 v -894.1 c 0,-470.7 -265.76,-707.2 -677.92,-707.2 -409.91,0 -671.16,236.5 -671.16,693.7"
         style="fill:#ffffff;fill-opacity:1;fill-rule:nonzero;stroke:none"
         id="path36" />
      <path
         d="m 8247.74,5683.8 c 198.19,0 324.32,103.6 324.32,263.5 v 4.5 c 0,168.9 -121.63,261.3 -326.57,261.3 h -403.15 v -529.3 z m -682.43,781.5 h 702.7 c 198.19,0 353.59,-58.5 454.95,-157.6 83.33,-85.6 130.63,-202.7 130.63,-340.1 v -4.5 c 0,-259 -155.41,-414.4 -376.13,-477.5 l 425.67,-596.8 h -326.57 l -387.38,549.5 h -346.84 v -549.5 h -277.03 v 1576.5"
         style="fill:#ffffff;fill-opacity:1;fill-rule:nonzero;stroke:none"
         id="path38" />
      <path
         d="m 10256.8,6208.6 h -500.03 v 256.7 H 11036 v -256.7 h -500 V 4888.8 h -279.2 v 1319.8"
         style="fill:#ffffff;fill-opacity:1;fill-rule:nonzero;stroke:none"
         id="path40" />
      <path
         d="m 12959.5,5514.9 -272.5,630.6 -270.3,-630.6 z m -396.4,961.7 h 256.7 l 693.7,-1587.8 h -292.8 l -159.9,380.6 h -745.5 l -162.1,-380.6 h -283.8 l 693.7,1587.8"
         style="fill:#ffffff;fill-opacity:1;fill-rule:nonzero;stroke:none"
         id="path42" />
      <path
         d="m 14475.3,6465.3 h 277 V 4888.8 h -277 v 1576.5"
         style="fill:#ffffff;fill-opacity:1;fill-rule:nonzero;stroke:none"
         id="path44" />
      <path
         d="m 15849.1,6465.3 h 256.8 l 844.6,-1090.1 V 6465.3 H 17223 V 4888.8 h -232 l -869.3,1121.6 V 4888.8 h -272.6 v 1576.5"
         style="fill:#ffffff;fill-opacity:1;fill-rule:nonzero;stroke:none"
         id="path46" />
      <path
         d="m 11896.8,15479.2 c 0,0 -282.8,-1305 616.4,-2458.8 0,0 -1007.7,944.5 -616.4,2458.8 z m -965.6,-819.2 c 0,0 -6.9,-1335.3 1111.5,-2278.2 0,0 -1181.2,715.8 -1111.5,2278.2 z M 7957.3,12381.8 C 9075.66,13324.7 9068.78,14660 9068.78,14660 9138.53,13097.6 7957.3,12381.8 7957.3,12381.8 Z m -470.51,638.6 c 899.22,1153.8 616.4,2458.8 616.4,2458.8 391.31,-1514.3 -616.4,-2458.8 -616.4,-2458.8 z M 14129.6,16720 c -133.4,0 -246.1,-88.6 -282.4,-210.2 h -232.3 v 88.8 c 0,35.4 -27.3,66.3 -62.8,67.4 -36.6,1.1 -66.7,-28.3 -66.7,-64.7 v -91.5 H 6514.61 v 88.8 c 0,35.4 -27.33,66.3 -62.77,67.4 -36.68,1.1 -66.74,-28.3 -66.74,-64.7 v -91.5 h -232.25 c -36.38,121.6 -149.05,210.2 -282.48,210.2 -162.85,0 -294.86,-132 -294.86,-294.9 0,-162.8 132.01,-294.8 294.86,-294.8 133.43,0 246.1,88.6 282.48,210.2 h 232.25 v -88.8 c 0,-35.4 27.32,-66.3 62.76,-67.4 36.67,-1.1 66.75,28.3 66.75,64.7 v 91.5 h 378.49 v -4421.9 c -80.82,47.2 -157.42,101.2 -225.54,163.1 2.07,8.9 3.26,18.1 3.26,27.7 0,67.7 -54.89,122.6 -122.61,122.6 -67.72,0 -122.61,-54.9 -122.61,-122.6 0,-67.8 54.89,-122.7 122.61,-122.7 15.54,0 30.35,3.1 44.03,8.3 61.25,-51.8 151.8,-147.2 290.29,-225.6 0,0 223.02,-145.3 525.11,-174.3 0,0 -221.61,-30.4 -514.54,77.7 V 7893.9 c 592.78,0 554.03,406.8 912.41,462 -395.18,537.5 -468.48,1492.7 -468.48,1492.7 114.12,-546.7 319.88,-950.5 501.72,-1221.6 46.73,31.4 96.05,57.9 149.82,77.6 220.22,80.3 546.19,59.7 512.39,258.6 -666.39,697.4 -829.11,1743.5 -829.11,1743.5 215.57,-725.8 525.3,-1128.1 747.28,-1365.7 24.08,96 116,156.9 229.05,337 156.91,249.9 -406.8,816.5 -569.53,1144.9 -142.25,287 -172.57,537.5 -176.81,674.3 l 2.47,110.2 v 0 c 1092.56,418.4 1762.84,1982.6 1941.04,2748.9 84.04,361.3 130.09,731.8 154.65,1057.6 24.6,-325.8 70.6,-696.3 154.7,-1057.6 178.1,-766.3 848.4,-2330.5 1941,-2748.9 v 0 l 2.5,-110.2 c -4.3,-136.8 -34.6,-387.3 -176.9,-674.3 -162.7,-328.4 -726.4,-895 -569.5,-1144.9 113.1,-180.1 205,-241 229.1,-337 221.9,237.6 531.7,639.9 747.3,1365.7 0,0 -162.8,-1046.1 -829.2,-1743.5 -33.8,-198.9 292.2,-178.3 512.4,-258.6 53.8,-19.7 103.1,-46.2 149.8,-77.6 181.9,271.1 387.6,674.9 501.8,1221.6 0,0 -73.3,-955.2 -468.5,-1492.7 358.4,-55.2 319.6,-462 912.4,-462 v 3778.9 c -292.9,-108.1 -514.5,-77.7 -514.5,-77.7 302.1,29 525.1,174.3 525.1,174.3 138.5,78.4 229,173.8 290.3,225.6 13.6,-5.2 28.4,-8.3 44,-8.3 67.7,0 122.6,54.9 122.6,122.7 0,67.7 -54.9,122.6 -122.6,122.6 -67.7,0 -122.6,-54.9 -122.6,-122.6 0,-9.6 1.2,-18.8 3.2,-27.7 -68.1,-61.9 -144.7,-115.9 -225.5,-163.1 v 4421.9 h 378.5 v -88.8 c 0,-35.4 27.3,-66.3 62.8,-67.4 36.6,-1.1 66.7,28.3 66.7,64.7 v 91.5 h 232.3 c 36.3,-121.6 149,-210.2 282.4,-210.2 162.9,0 294.9,132 294.9,294.8 0,162.9 -132,294.9 -294.9,294.9"
         style="fill:#ffffff;fill-opacity:1;fill-rule:nonzero;stroke:none"
         id="path48" />
    </g>
  </g>
</svg>
